<?xml version="1.0" encoding="utf-8"?>
<!-- Generator: Adobe Illustrator 19.1.0, SVG Export Plug-In . SVG Version: 6.00 Build 0)  -->
<svg version="1.1" id="Layer_1" xmlns="http://www.w3.org/2000/svg" xmlns:xlink="http://www.w3.org/1999/xlink" x="0px" y="0px"
	 viewBox="-211 141 80 80" style="enable-background:new -211 141 80 80;" xml:space="preserve">
<style type="text/css">
	.st0{fill:#FFFFFF;}
	.st1{fill:#D1867B;}
	.st2{fill:#BD3A26;}
	.st3{fill:#D98972;}
	.st4{clip-path:url(#SVGID_2_);fill:#D98972;}
	.st5{clip-path:url(#SVGID_4_);fill:#F7FCFD;}
	.st6{clip-path:url(#SVGID_6_);fill:#D98972;}
	.st7{clip-path:url(#SVGID_8_);fill:#F7FCFD;}
	.st8{clip-path:url(#SVGID_10_);fill:#D98972;}
	.st9{clip-path:url(#SVGID_12_);fill:#F7FCFD;}
</style>
<g>
	<g>
		<g>
			<g>
				<path class="st0" d="M-171,218.6c-20.7,0-37.6-16.9-37.6-37.6s16.9-37.6,37.6-37.6s37.6,16.9,37.6,37.6S-150.3,218.6-171,218.6z
					"/>
				<path class="st1" d="M-171,145.8c19.4,0,35.2,15.8,35.2,35.2s-15.8,35.2-35.2,35.2s-35.2-15.8-35.2-35.2S-190.4,145.8-171,145.8
					 M-171,141c-22.1,0-40,17.9-40,40s17.9,40,40,40s40-17.9,40-40S-148.9,141-171,141L-171,141z"/>
			</g>
		</g>
		<g>
			<g>
				<circle class="st2" cx="-171" cy="181" r="33.2"/>
			</g>
		</g>
		<circle class="st3" cx="-171" cy="158.1" r="7.2"/>
		<circle class="st0" cx="-171" cy="203.9" r="7.2"/>
		<circle class="st3" cx="-151.1" cy="168.3" r="7.2"/>
		<circle class="st3" cx="-190.8" cy="168.3" r="7.2"/>
		<g>
			<g>
				<defs>
					<circle id="SVGID_1_" cx="-171" cy="181" r="7.2"/>
				</defs>
				<clipPath id="SVGID_2_">
					<use xlink:href="#SVGID_1_"  style="overflow:visible;"/>
				</clipPath>
				<circle class="st4" cx="-171.1" cy="181.3" r="9.7"/>
			</g>
			<g>
				<defs>
					<circle id="SVGID_3_" cx="-171" cy="181" r="7.2"/>
				</defs>
				<clipPath id="SVGID_4_">
					<use xlink:href="#SVGID_3_"  style="overflow:visible;"/>
				</clipPath>
				<path class="st5" d="M-236.1,202.4c-0.3-4.4,2.2-7.2,5.6-6.3c3.4,0.9,8.6-0.4,11.7-3c3-2.6,8.2-4.1,11.5-3.4s8.1-0.5,10.6-2.8
					c2.5-2.3,7.8-3.4,11.7-2.6s9.2-0.6,11.7-3c2.5-2.5,7.2-2.1,10.4,0.9s4,8.5,1.7,12.3l-17.6,29.4c-2.3,3.8-7.7,7.4-12.1,8.1
					l-34.8,5c-4.4,0.6-8.2-2.4-8.5-6.8L-236.1,202.4z"/>
			</g>
		</g>
		<g>
			<g>
				<defs>
					<circle id="SVGID_5_" cx="-189.8" cy="193.6" r="7.2"/>
				</defs>
				<clipPath id="SVGID_6_">
					<use xlink:href="#SVGID_5_"  style="overflow:visible;"/>
				</clipPath>
				<circle class="st6" cx="-190" cy="193.9" r="9.7"/>
			</g>
			<g>
				<defs>
					<circle id="SVGID_7_" cx="-189.8" cy="193.6" r="7.2"/>
				</defs>
				<clipPath id="SVGID_8_">
					<use xlink:href="#SVGID_7_"  style="overflow:visible;"/>
				</clipPath>
				<path class="st7" d="M-258,201.2c0.6-4.4,3.7-6.6,6.8-5c3.1,1.6,8.6,1.4,12-0.6c3.5-1.9,8.9-2.4,12-1c3.1,1.4,8,1.2,11-0.5
					c2.9-1.7,8.3-1.8,12-0.2c3.7,1.6,9.1,1.3,12-0.6s7.4-0.5,10,3c2.6,3.5,2.1,9.2-0.9,12.4l-23.2,25.2c-3,3.2-9.1,5.7-13.5,5.4
					l-35.1-2.1c-4.4-0.3-7.5-4.1-6.9-8.4L-258,201.2z"/>
			</g>
		</g>
		<g>
			<g>
				<defs>
					<circle id="SVGID_9_" cx="-149.8" cy="191.7" r="7.2"/>
				</defs>
				<clipPath id="SVGID_10_">
					<use xlink:href="#SVGID_9_"  style="overflow:visible;"/>
				</clipPath>
				<circle class="st8" cx="-150" cy="192" r="9.7"/>
			</g>
			<g>
				<defs>
					<circle id="SVGID_11_" cx="-149.8" cy="191.7" r="7.2"/>
				</defs>
				<clipPath id="SVGID_12_">
					<use xlink:href="#SVGID_11_"  style="overflow:visible;"/>
				</clipPath>
				<path class="st9" d="M-218.3,188.1c1.3-4.2,4.7-5.9,7.5-3.8c2.8,2.1,8.2,2.7,12,1.4s9.2-0.9,12,1c2.8,1.9,7.7,2.4,10.9,1.3
					c3.2-1.2,8.5-0.4,11.9,1.8c3.4,2.2,8.8,2.8,12,1.4c3.2-1.4,7.4,0.7,9.3,4.6c1.9,3.9,0.6,9.4-2.9,12.1l-27.1,21
					c-3.5,2.7-9.9,4.1-14.2,3.1l-34.3-7.9c-4.3-1-6.7-5.2-5.4-9.5L-218.3,188.1z"/>
			</g>
		</g>
	</g>
</g>
</svg>
