<?xml version="1.0" encoding="utf-8"?>
<!-- Generator: Adobe Illustrator 18.1.1, SVG Export Plug-In . SVG Version: 6.00 Build 0)  -->
<!DOCTYPE svg PUBLIC "-//W3C//DTD SVG 1.1//EN" "http://www.w3.org/Graphics/SVG/1.1/DTD/svg11.dtd">
<svg version="1.1" id="Layer_1" xmlns="http://www.w3.org/2000/svg" xmlns:xlink="http://www.w3.org/1999/xlink" x="0px" y="0px"
	 viewBox="-26 26.5 12.2 13.5" enable-background="new -26 26.5 12.2 13.5" xml:space="preserve">
<g>
	<path fill="#BE1E2D" d="M-14.3,37.3l-3.6-4.1l3.6-4.1c0.6-0.6,0.6-1.6,0-2.2s-1.6-0.6-2.2,0l-3.4,4l-3.4-3.9
		c-0.7-0.7-1.6-0.7-2.2,0c-0.6,0.6-0.6,1.6,0,2.2l3.5,4l-3.6,4.1c-0.6,0.6-0.6,1.6,0,2.2s1.6,0.6,2.2,0l3.4-3.9l3.5,3.9
		c0.6,0.6,1.6,0.6,2.2,0C-13.7,38.9-13.7,37.9-14.3,37.3z"/>
</g>
</svg>
