<!-- Generator: Adobe Illustrator 19.1.0, SVG Export Plug-In  -->
<svg version="1.1"
	 xmlns="http://www.w3.org/2000/svg" xmlns:xlink="http://www.w3.org/1999/xlink" xmlns:a="http://ns.adobe.com/AdobeSVGViewerExtensions/3.0/"
	 x="0px" y="0px" width="130.9px" height="98.4px" viewBox="0 0 130.9 98.4" enable-background="new 0 0 130.9 98.4"
	 xml:space="preserve">
<defs>
</defs>
<g>
	<g>
		<g>
			<defs>
				<circle id="SVGID_1_" cx="90.9" cy="40" r="7.2"/>
			</defs>
			<clipPath id="SVGID_2_">
				<use xlink:href="#SVGID_1_"  overflow="visible"/>
			</clipPath>
		</g>
		<g>
			<defs>
				<circle id="SVGID_3_" cx="72.1" cy="52.6" r="7.2"/>
			</defs>
			<clipPath id="SVGID_4_">
				<use xlink:href="#SVGID_3_"  overflow="visible"/>
			</clipPath>
		</g>
		<g>
			<defs>
				<circle id="SVGID_5_" cx="112.1" cy="50.7" r="7.2"/>
			</defs>
			<clipPath id="SVGID_6_">
				<use xlink:href="#SVGID_5_"  overflow="visible"/>
			</clipPath>
		</g>
	</g>
	<g>
		<g>
			<g>
				<path fill="#FFFFFF" d="M90.9,77.6c-20.7,0-37.6-16.9-37.6-37.6S70.2,2.4,90.9,2.4c20.7,0,37.6,16.9,37.6,37.6
					S111.6,77.6,90.9,77.6z"/>
				<path fill="#D1867B" d="M90.9,4.8c19.4,0,35.2,15.8,35.2,35.2s-15.8,35.2-35.2,35.2c-19.4,0-35.2-15.8-35.2-35.2
					S71.5,4.8,90.9,4.8 M90.9,0c-22.1,0-40,17.9-40,40s17.9,40,40,40c22.1,0,40-17.9,40-40S113,0,90.9,0L90.9,0z"/>
			</g>
		</g>
		<g>
			<g>
				<circle fill="#BD3A26" cx="90.9" cy="40" r="33.2"/>
			</g>
		</g>
		<circle fill="#D98972" cx="90.9" cy="17.1" r="7.2"/>
		<circle fill="#FFFFFF" cx="90.9" cy="62.9" r="7.2"/>
		<circle fill="#D98972" cx="110.8" cy="27.3" r="7.2"/>
		<circle fill="#D98972" cx="71.1" cy="27.3" r="7.2"/>
		<g>
			<defs>
				<circle id="SVGID_7_" cx="90.9" cy="40" r="7.2"/>
			</defs>
			<clipPath id="SVGID_8_">
				<use xlink:href="#SVGID_7_"  overflow="visible"/>
			</clipPath>
			<circle clip-path="url(#SVGID_8_)" fill-rule="evenodd" clip-rule="evenodd" fill="#D98972" cx="90.8" cy="40.3" r="9.7"/>
			<path clip-path="url(#SVGID_8_)" fill-rule="evenodd" clip-rule="evenodd" fill="#F7FCFD" d="M25.8,61.4
				c-0.3-4.4,2.2-7.2,5.6-6.3s8.6-0.4,11.7-3c3-2.6,8.2-4.1,11.5-3.4c3.3,0.7,8.1-0.5,10.6-2.8c2.5-2.3,7.8-3.4,11.7-2.6
				s9.2-0.6,11.7-3c2.5-2.5,7.2-2.1,10.4,0.9c3.2,3,4,8.5,1.7,12.3L83.1,82.9c-2.3,3.8-7.7,7.4-12.1,8.1L36.2,96
				c-4.4,0.6-8.2-2.4-8.5-6.8L25.8,61.4z"/>
		</g>
		<g>
			<defs>
				<circle id="SVGID_9_" cx="72.1" cy="52.6" r="7.2"/>
			</defs>
			<clipPath id="SVGID_10_">
				<use xlink:href="#SVGID_9_"  overflow="visible"/>
			</clipPath>
			<circle clip-path="url(#SVGID_10_)" fill-rule="evenodd" clip-rule="evenodd" fill="#D98972" cx="71.9" cy="52.9" r="9.7"/>
			<path clip-path="url(#SVGID_10_)" fill-rule="evenodd" clip-rule="evenodd" fill="#F7FCFD" d="M3.9,60.2c0.6-4.4,3.7-6.6,6.8-5
				c3.1,1.6,8.6,1.4,12-0.6c3.5-1.9,8.9-2.4,12-1s8,1.2,11-0.5c2.9-1.7,8.3-1.8,12-0.2c3.7,1.6,9.1,1.3,12-0.6s7.4-0.5,10,3
				s2.1,9.2-0.9,12.4L55.6,92.9c-3,3.2-9.1,5.7-13.5,5.4L7,96.2c-4.4-0.3-7.5-4.1-6.9-8.4L3.9,60.2z"/>
		</g>
		<g>
			<defs>
				<circle id="SVGID_11_" cx="112.1" cy="50.7" r="7.2"/>
			</defs>
			<clipPath id="SVGID_12_">
				<use xlink:href="#SVGID_11_"  overflow="visible"/>
			</clipPath>
			<circle clip-path="url(#SVGID_12_)" fill-rule="evenodd" clip-rule="evenodd" fill="#D98972" cx="111.9" cy="51" r="9.7"/>
			<path clip-path="url(#SVGID_12_)" fill-rule="evenodd" clip-rule="evenodd" fill="#F7FCFD" d="M43.6,47.1
				c1.3-4.2,4.7-5.9,7.5-3.8c2.8,2.1,8.2,2.7,12,1.4s9.2-0.9,12,1c2.8,1.9,7.7,2.4,10.9,1.3c3.2-1.2,8.5-0.4,11.9,1.8
				c3.4,2.2,8.8,2.8,12,1.4c3.2-1.4,7.4,0.7,9.3,4.6s0.6,9.4-2.9,12.1L89.2,87.9c-3.5,2.7-9.9,4.1-14.2,3.1l-34.3-7.9
				c-4.3-1-6.7-5.2-5.4-9.5L43.6,47.1z"/>
		</g>
	</g>
	<g>
		<g>
			<defs>
				<circle id="SVGID_13_" cx="90.9" cy="40" r="7.2"/>
			</defs>
			<clipPath id="SVGID_14_">
				<use xlink:href="#SVGID_13_"  overflow="visible"/>
			</clipPath>
		</g>
		<g>
			<defs>
				<circle id="SVGID_15_" cx="72.1" cy="52.6" r="7.2"/>
			</defs>
			<clipPath id="SVGID_16_">
				<use xlink:href="#SVGID_15_"  overflow="visible"/>
			</clipPath>
		</g>
		<g>
			<defs>
				<circle id="SVGID_17_" cx="112.1" cy="50.7" r="7.2"/>
			</defs>
			<clipPath id="SVGID_18_">
				<use xlink:href="#SVGID_17_"  overflow="visible"/>
			</clipPath>
		</g>
	</g>
</g>
</svg>
