<!-- Generator: Adobe Illustrator 19.1.0, SVG Export Plug-In  -->
<svg version="1.1"
	 xmlns="http://www.w3.org/2000/svg" xmlns:xlink="http://www.w3.org/1999/xlink" xmlns:a="http://ns.adobe.com/AdobeSVGViewerExtensions/3.0/"
	 x="0px" y="0px" width="12.2px" height="13.5px" viewBox="0 0 12.2 13.5" enable-background="new 0 0 12.2 13.5"
	 xml:space="preserve">
<defs>
</defs>
<g>
	<path d="M11.7,10.8L8.1,6.7l3.6-4.1c0.6-0.6,0.6-1.6,0-2.2c-0.6-0.6-1.6-0.6-2.2,0L6.1,4.4L2.7,0.5C2-0.2,1.1-0.2,0.5,0.5
		c-0.6,0.6-0.6,1.6,0,2.2L4,6.7l-3.6,4.1c-0.6,0.6-0.6,1.6,0,2.2c0.6,0.6,1.6,0.6,2.2,0l3.4-3.9L9.5,13c0.6,0.6,1.6,0.6,2.2,0
		C12.3,12.4,12.3,11.4,11.7,10.8z"/>
</g>
</svg>
