<!-- Generator: Adobe Illustrator 19.1.0, SVG Export Plug-In  -->
<svg version="1.1"
	 xmlns="http://www.w3.org/2000/svg" xmlns:xlink="http://www.w3.org/1999/xlink" xmlns:a="http://ns.adobe.com/AdobeSVGViewerExtensions/3.0/"
	 x="0px" y="0px" width="80px" height="80px" viewBox="0 0 80 80" enable-background="new 0 0 80 80" xml:space="preserve">
<defs>
</defs>
<g>
	<g>
		<g>
			<g>
				<path fill="#FFFFFF" d="M40,77.6C19.3,77.6,2.4,60.7,2.4,40S19.3,2.4,40,2.4c20.7,0,37.6,16.9,37.6,37.6S60.7,77.6,40,77.6z"/>
				<path fill="#AA8A7A" d="M40,4.8c19.4,0,35.2,15.8,35.2,35.2S59.4,75.2,40,75.2C20.6,75.2,4.8,59.4,4.8,40S20.6,4.8,40,4.8 M40,0
					C17.9,0,0,17.9,0,40s17.9,40,40,40c22.1,0,40-17.9,40-40S62.1,0,40,0L40,0z"/>
			</g>
		</g>
		<g>
			<g>
				<circle fill="#6A4119" cx="40" cy="40" r="33.2"/>
			</g>
		</g>
		<path fill="#FFFFFF" d="M51.2,36.1L39.9,12.2L28.7,36.1c0,0-4.9,10.9-4.9,14.9s1.5,16.5,16.2,16.5S56.1,55,56.1,51
			S51.2,36.1,51.2,36.1z"/>
		<polygon fill="#6A3C17" points="55.5,60.3 50.9,52.7 52.7,52.7 48.9,46 50.1,45.7 47.4,40.7 48.2,40.6 45.5,35.9 42.8,40.6 
			43.6,40.7 40.9,45.7 42.1,46 38.3,52.7 40.1,52.7 35.5,60.3 44.2,60.3 44.2,67.8 46.8,67.8 46.8,60.3 		"/>
	</g>
</g>
</svg>
