<!-- Generator: Adobe Illustrator 19.1.0, SVG Export Plug-In  -->
<svg version="1.1"
	 xmlns="http://www.w3.org/2000/svg" xmlns:xlink="http://www.w3.org/1999/xlink" xmlns:a="http://ns.adobe.com/AdobeSVGViewerExtensions/3.0/"
	 x="0px" y="0px" width="79.9px" height="79.9px" viewBox="0 0 79.9 79.9" enable-background="new 0 0 79.9 79.9"
	 xml:space="preserve">
<defs>
</defs>
<g>
	<g>
		<g>
			<g>
				<path fill="#FFFFFF" d="M40,77.5C19.2,77.5,2.4,60.7,2.4,40S19.2,2.4,40,2.4c20.7,0,37.5,16.8,37.5,37.5S60.7,77.5,40,77.5z"/>
				<path fill="#AAACAA" d="M40,4.8c19.4,0,35.1,15.7,35.1,35.1S59.4,75.1,40,75.1C20.5,75.1,4.8,59.4,4.8,40S20.5,4.8,40,4.8 M40,0
					C17.9,0,0,17.9,0,40s17.9,40,40,40c22,0,40-17.9,40-40S62,0,40,0L40,0z"/>
			</g>
		</g>
		<g>
			<g>
				<circle fill="#A7A8AA" cx="40" cy="40" r="33.2"/>
			</g>
		</g>
		<path fill="#FFFFFF" d="M22.8,41.5c0,0.5,0.2,1.1,1,1.1c0,0,0,0,0,0c0,0,0,0,0.1,0c0,0,0,0,0,0v0c0.8,0,1.1-0.6,1.1-1.1
			c0-1.4-1.1-2.8-1.1-2.8S22.8,40.1,22.8,41.5z M27.2,44.6c0,0.5,0.2,1.1,1,1.1c0,0,0,0,0,0c0,0,0,0,0.1,0c0,0,0,0,0,0v0
			c0.8,0,1.1-0.6,1.1-1.1c0-1.4-1.1-2.8-1.1-2.8S27.2,43.2,27.2,44.6z M31.1,41.7c0,0.5,0.2,1.1,1,1.1c0,0,0,0,0,0c0,0,0,0,0.1,0
			c0,0,0,0,0,0v0c0.8,0,1.1-0.6,1.1-1.1c0-1.4-1.1-2.8-1.1-2.8S31.2,40.3,31.1,41.7z M18.6,45.5c0,0.5,0.2,1.1,1,1.1c0,0,0,0,0,0
			c0,0,0,0,0.1,0c0,0,0,0,0,0v0c0.8,0,1.1-0.6,1.1-1.1c0-1.4-1.1-2.8-1.1-2.8S18.6,44.2,18.6,45.5z"/>
		<path fill="#FFFFFF" d="M32.5,51.5c0,0.5,0.2,1.1,1,1.1c0,0,0,0,0,0c0,0,0,0,0.1,0c0,0,0,0,0,0v0c0.8,0,1.1-0.6,1.1-1.1
			c0-1.4-1.1-2.8-1.1-2.8S32.5,50.1,32.5,51.5z M36.9,54.6c0,0.5,0.2,1.1,1,1.1c0,0,0,0,0,0c0,0,0,0,0.1,0c0,0,0,0,0,0v0
			c0.8,0,1.1-0.6,1.1-1.1c0-1.4-1.1-2.8-1.1-2.8S36.9,53.2,36.9,54.6z M40.8,51.7c0,0.5,0.2,1.1,1,1.1c0,0,0,0,0,0c0,0,0,0,0.1,0
			c0,0,0,0,0,0v0c0.8,0,1.1-0.6,1.1-1.1c0-1.4-1.1-2.8-1.1-2.8S40.8,50.3,40.8,51.7z M28.3,55.6c0,0.5,0.2,1.1,1,1.1c0,0,0,0,0,0
			c0,0,0,0,0.1,0c0,0,0,0,0,0v0c0.8,0,1.1-0.6,1.1-1.1c0-1.4-1.1-2.8-1.1-2.8S28.3,54.2,28.3,55.6z"/>
		<path fill="#FFFFFF" d="M53.2,44.5c0,0.5,0.2,1.1,1,1.1c0,0,0,0,0,0c0,0,0,0,0.1,0c0,0,0,0,0,0v0c0.8,0,1.1-0.6,1.1-1.1
			c0-1.4-1.1-2.8-1.1-2.8S53.2,43.1,53.2,44.5z M57.5,47.6c0,0.5,0.2,1.1,1,1.1c0,0,0,0,0,0c0,0,0,0,0.1,0c0,0,0,0,0,0v0
			c0.8,0,1.1-0.6,1.1-1.1c0-1.4-1.1-2.8-1.1-2.8S57.6,46.2,57.5,47.6z M61.5,44.7c0,0.5,0.2,1.1,1,1.1c0,0,0,0,0,0c0,0,0,0,0.1,0
			c0,0,0,0,0,0v0c0.8,0,1.1-0.6,1.1-1.1c0-1.4-1.1-2.8-1.1-2.8S61.5,43.3,61.5,44.7z M49,48.5c0,0.5,0.2,1.1,1,1.1c0,0,0,0,0,0
			c0,0,0,0,0.1,0c0,0,0,0,0,0v0c0.8,0,1.1-0.6,1.1-1.1c0-1.4-1.1-2.8-1.1-2.8S49,47.2,49,48.5z"/>
		<path fill="#FFFFFF" d="M35.9,62.3c0,0.5,0.2,1.1,1,1.1c0,0,0,0,0,0c0,0,0,0,0.1,0c0,0,0,0,0,0v0c0.8,0,1.1-0.6,1.1-1.1
			c0-1.4-1.1-2.8-1.1-2.8S35.9,60.9,35.9,62.3z M40.3,65.4c0,0.5,0.2,1.1,1,1.1c0,0,0,0,0,0c0,0,0,0,0.1,0c0,0,0,0,0,0v0
			c0.8,0,1.1-0.6,1.1-1.1c0-1.4-1.1-2.8-1.1-2.8S40.3,64,40.3,65.4z M44.2,62.5c0,0.5,0.2,1.1,1,1.1c0,0,0,0,0,0c0,0,0,0,0.1,0
			c0,0,0,0,0,0v0c0.8,0,1.1-0.6,1.1-1.1c0-1.4-1.1-2.8-1.1-2.8S44.2,61.1,44.2,62.5z M31.7,66.3c0,0.5,0.2,1.1,1,1.1c0,0,0,0,0,0
			c0,0,0,0,0.1,0c0,0,0,0,0,0v0c0.8,0,1.1-0.6,1.1-1.1c0-1.4-1.1-2.8-1.1-2.8S31.7,65,31.7,66.3z"/>
		<path fill="#FFFFFF" d="M19.6,30.2c0,0-0.6-3.9,3.1-3.9s3.7,2.5,3.7,2.5s-1.7-9.9,7.6-11.8s12.9,7.9,12.9,7.9s7.6-3.9,16.9,5.6
			c0,0,5.6-1.4,8.2,2.3c0,0-1.7,2-5.3,2c-3.7,0-5.3,2.5-7.6,0.8c-2.3-1.7-9.6-1.7-9.6-1.7s-4.2,2.8-5.9,1.7H32.2c0,0-3.7,2.5-5.1,0
			c0,0-3.9,1.7-4.8,0c0,0-13.2,1.4-13.8-1.1c0,0,0.6-3.7,2.5-2.5c0,0,1.1-3.4,3.4-3.1C16.8,29.1,19.6,30.2,19.6,30.2z"/>
	</g>
</g>
</svg>
