<!-- Generator: Adobe Illustrator 19.1.0, SVG Export Plug-In  -->
<svg version="1.1"
	 xmlns="http://www.w3.org/2000/svg" xmlns:xlink="http://www.w3.org/1999/xlink" xmlns:a="http://ns.adobe.com/AdobeSVGViewerExtensions/3.0/"
	 x="0px" y="0px" width="80px" height="80px" viewBox="0 0 80 80" enable-background="new 0 0 80 80" xml:space="preserve">
<defs>
</defs>
<g>
	<g>
		<g>
			<g>
				<path fill="#FFFFFF" d="M40,77.6C19.3,77.6,2.4,60.7,2.4,40S19.3,2.4,40,2.4c20.7,0,37.6,16.9,37.6,37.6S60.7,77.6,40,77.6z"/>
				<path fill="#9DB888" d="M40,4.8c19.4,0,35.2,15.8,35.2,35.2S59.4,75.2,40,75.2C20.6,75.2,4.8,59.4,4.8,40S20.6,4.8,40,4.8 M40,0
					C17.9,0,0,17.9,0,40s17.9,40,40,40c22.1,0,40-17.9,40-40S62.1,0,40,0L40,0z"/>
			</g>
		</g>
		<g>
			<g>
				<circle fill="#9DB989" cx="40" cy="40" r="33.2"/>
			</g>
		</g>
		<path fill="#5C883C" d="M44.7,25.4l0.8-6l14,1.6v-2.4l-16.1-1.6l-1.2,8.4H25.2l4.8,37.5h18.9l4.8-37.5H44.7z M28.3,28.3h13.6
			L40,42.3h-9.9L28.3,28.3z M48.7,42.3h-6.2l1.9-14.1h6.1L48.7,42.3z"/>
	</g>
</g>
</svg>
