<!-- Generator: Adobe Illustrator 19.1.0, SVG Export Plug-In  -->
<svg version="1.1"
	 xmlns="http://www.w3.org/2000/svg" xmlns:xlink="http://www.w3.org/1999/xlink" xmlns:a="http://ns.adobe.com/AdobeSVGViewerExtensions/3.0/"
	 x="0px" y="0px" width="21.6px" height="21.6px" viewBox="0 0 21.6 21.6" enable-background="new 0 0 21.6 21.6"
	 xml:space="preserve">
<defs>
</defs>
<path d="M10.1,7.9l1.3,0V2.6L13.8,5l1-1l-4-4l-4,4l1,1l2.4-2.4L10.1,7.9z M14.8,17.6l-1-1L11.5,19l0-5.3l-1.3,0V19l-2.4-2.4l-1,1
	l4,4L14.8,17.6z M2.6,11.5h5.3v-1.3H2.6L5,7.7l-1-1l-4,4l4,4l1-1L2.6,11.5z M19,10.1h-5.3l0,1.3l5.3,0l-2.4,2.4l1,1l4-4l-4-4l-1,1
	L19,10.1z"/>
</svg>
