<!-- Generator: Adobe Illustrator 19.1.0, SVG Export Plug-In  -->
<svg version="1.1"
	 xmlns="http://www.w3.org/2000/svg" xmlns:xlink="http://www.w3.org/1999/xlink" xmlns:a="http://ns.adobe.com/AdobeSVGViewerExtensions/3.0/"
	 x="0px" y="0px" width="80px" height="80px" viewBox="0 0 80 80" enable-background="new 0 0 80 80" xml:space="preserve">
<defs>
</defs>
<g>
	<g>
		<g>
			<g>
				<path fill="#FFFFFF" d="M40,77.6C19.3,77.6,2.4,60.7,2.4,40S19.3,2.4,40,2.4c20.7,0,37.6,16.9,37.6,37.6S60.7,77.6,40,77.6z"/>
				<path fill="#C1D5B5" d="M40,4.8c19.4,0,35.2,15.8,35.2,35.2S59.4,75.2,40,75.2S4.8,59.4,4.8,40S20.6,4.8,40,4.8 M40,0
					C17.9,0,0,17.9,0,40s17.9,40,40,40s40-17.9,40-40S62.1,0,40,0L40,0z"/>
			</g>
		</g>
		<g>
			<g>
				<circle fill="#9AB584" cx="40" cy="40" r="33.2"/>
			</g>
		</g>
		<g>
			<path fill="#FBFCF0" d="M39.8,57.2c-10.2,0-12.3-11-12.3-14.1c0-3.1,1.2-9.1,5.2-16.2S35.7,11,35.7,11s17,14.5,17,31.2
				C52.7,57.2,39.8,57.2,39.8,57.2z"/>
			<path fill="#FBFCF0" d="M47.7,60.9H31.8c-0.7,0-1.2-0.5-1.2-1.2v-0.8c0-0.7,0.5-1.2,1.2-1.2h15.8c0.7,0,1.2,0.5,1.2,1.2v0.8
				C48.9,60.4,48.3,60.9,47.7,60.9z"/>
			<path fill="#FBFCF0" d="M47.7,64.9H31.8c-0.7,0-1.2-0.5-1.2-1.2v-0.8c0-0.7,0.5-1.2,1.2-1.2h15.8c0.7,0,1.2,0.5,1.2,1.2v0.8
				C48.9,64.3,48.3,64.9,47.7,64.9z"/>
			<path fill="#FBFCF0" d="M32.2,66h15c0,0,0.2,3.1-7.1,3.1S32.2,66,32.2,66z"/>
		</g>
	</g>
</g>
</svg>
