<!-- Generator: Adobe Illustrator 19.1.0, SVG Export Plug-In  -->
<svg version="1.1"
	 xmlns="http://www.w3.org/2000/svg" xmlns:xlink="http://www.w3.org/1999/xlink" xmlns:a="http://ns.adobe.com/AdobeSVGViewerExtensions/3.0/"
	 x="0px" y="0px" width="153.3px" height="127.2px" viewBox="0 0 153.3 127.2" enable-background="new 0 0 153.3 127.2"
	 xml:space="preserve">
<defs>
</defs>
<g>
	<g>
		<path fill="#FFFFFF" d="M4.4,23.9H0.1V0.4h10.5v3.8H4.4v6.5h5.8v3.8H4.4V23.9z"/>
		<path fill="#FFFFFF" d="M24.2,23.9L22.8,18h-6.1l-1.4,5.9H11l5.8-23.6h5.9l5.8,23.6H24.2z M22,14.1l-1.3-5.5
			c-0.1-0.3-0.2-1.2-0.5-2.5c-0.3-1.3-0.4-2.2-0.5-2.7c-0.1,0.9-0.3,1.9-0.5,3s-0.8,3.6-1.7,7.6H22z"/>
		<path fill="#FFFFFF" d="M31.4,23.9V0.4h4.1v23.5H31.4z"/>
		<path fill="#FFFFFF" d="M44.9,14.7v9.2h-4.4V0.4h5.7c2.4,0,4.2,0.6,5.4,1.7c1.2,1.1,1.7,2.9,1.7,5.3c0,3-1,5-3,6.2l4.5,10.3h-4.7
			l-3.7-9.2H44.9z M44.9,11H46c1,0,1.8-0.3,2.2-0.9c0.5-0.6,0.7-1.5,0.7-2.6c0-1.2-0.2-2.1-0.7-2.6S47,4.2,46,4.2h-1.1V11z"/>
		<path fill="#FFFFFF" d="M65.4,23.9l-4.5-20h-0.2c0.2,1.5,0.3,3,0.3,4.2v15.8H57V0.4h6.7l4,18.5h0.1l4-18.5h6.8v23.5h-4.2V7.9
			c0-1.3,0.1-2.7,0.2-4.1h-0.1l-4.5,20H65.4z"/>
		<path fill="#FFFFFF" d="M99,12.1c0,3.9-0.7,6.9-2.2,9c-1.5,2.1-3.5,3.1-6.3,3.1c-2.7,0-4.8-1-6.3-3.1c-1.5-2.1-2.2-5.1-2.2-9
			c0-3.9,0.7-6.9,2.2-9C85.8,1,87.9,0,90.6,0c2.7,0,4.8,1,6.2,3.1C98.3,5.2,99,8.2,99,12.1z M86.6,12.1c0,2.7,0.3,4.7,1,6.1
			c0.7,1.4,1.7,2.1,3,2.1c2.6,0,4-2.7,4-8.2c0-5.5-1.3-8.2-3.9-8.2c-1.3,0-2.3,0.7-3,2.1S86.6,9.4,86.6,12.1z"/>
		<path fill="#FFFFFF" d="M116.9,0.4v15.2c0,2.8-0.6,4.9-1.9,6.4c-1.3,1.5-3.1,2.2-5.5,2.2c-2.3,0-4.1-0.7-5.3-2.2
			c-1.2-1.5-1.8-3.6-1.8-6.5V0.4h4.3v15.5c0,3,1,4.5,3,4.5c0.9,0,1.6-0.4,2.1-1.1s0.8-1.8,0.8-3.3V0.4H116.9z"/>
		<path fill="#FFFFFF" d="M137.5,23.9h-5.3l-7.3-17h-0.2c0.3,1.3,0.4,2.7,0.4,4.2v12.9H121V0.4h5.4l7.2,16.9h0.2
			c-0.2-1.1-0.3-2.5-0.3-4V0.4h4V23.9z"/>
		<path fill="#FFFFFF" d="M148.8,23.9h-4.4V4.2H140V0.4h13.4v3.8h-4.5V23.9z"/>
		<path fill="#FFFFFF" d="M37.5,76.6h-9.6l-4-21.7c-0.6-3-1.1-6.5-1.3-10.5l-0.2,2.1L21.1,55l-3.9,21.6H7.5L0,35.2h7.6l3.7,23.4
			c0.4,2.3,0.8,6,1.4,11c0.5-5.1,0.9-8.7,1.3-10.8l4.4-23.5h8l4.4,23.5c0.6,3.5,1,7.1,1.4,10.9c0.7-5.6,1.1-9.3,1.4-11.1l3.6-23.4
			h7.6L37.5,76.6z"/>
		<path fill="#FFFFFF" d="M67.8,76.6l-2.4-10.4H54.6l-2.4,10.4h-7.7L54.8,35h10.4l10.3,41.6H67.8z M64,59.3l-2.2-9.6
			c-0.1-0.6-0.4-2.1-0.9-4.4c-0.5-2.4-0.7-3.9-0.8-4.7c-0.2,1.6-0.6,3.4-0.9,5.4c-0.4,2-1.4,6.4-2.9,13.4H64z"/>
		<path fill="#FFFFFF" d="M89.9,76.6h-7.7V42h-7.9v-6.8h23.5V42h-7.9V76.6z"/>
		<path fill="#FFFFFF" d="M120.9,76.6h-18.7V35.2h18.7v6.7h-11v9.9h10.2v6.7h-10.2v11.5h11V76.6z"/>
		<path fill="#FFFFFF" d="M134.6,60.5v16.1h-7.7V35.2H137c4.3,0,7.4,1,9.4,3c2,2,3,5.1,3,9.3c0,5.2-1.8,8.9-5.3,11l8,18.1h-8.2
			l-6.5-16.1H134.6z M134.6,53.9h2c1.8,0,3.1-0.5,3.9-1.5c0.8-1,1.2-2.6,1.2-4.6c0-2.1-0.4-3.6-1.3-4.5c-0.8-0.9-2.1-1.3-3.9-1.3
			h-1.9V53.9z"/>
		<path fill="#FFFFFF" d="M35.4,126.7h-9l-3.8-20.2c-0.6-2.8-1-6-1.2-9.8l-0.2,2l-1.1,7.9l-3.7,20.1h-9l-7-38.6h7l3.5,21.8
			c0.3,2.2,0.8,5.6,1.3,10.3c0.4-4.7,0.9-8.1,1.2-10.1l4.1-21.9h7.4l4.1,21.9c0.5,3.3,1,6.6,1.3,10.2c0.6-5.2,1.1-8.6,1.3-10.3
			l3.4-21.8h7.1L35.4,126.7z"/>
		<path fill="#FFFFFF" d="M72.8,107.3c0,6.4-1.2,11.3-3.6,14.7c-2.4,3.4-5.8,5.1-10.3,5.1c-4.5,0-7.9-1.7-10.3-5.1
			c-2.4-3.4-3.6-8.4-3.6-14.8c0-6.4,1.2-11.3,3.6-14.7c2.4-3.4,5.8-5.1,10.3-5.1c4.4,0,7.9,1.7,10.2,5.1
			C71.6,96.1,72.8,101,72.8,107.3z M52.4,107.3c0,4.4,0.6,7.7,1.7,10.1c1.1,2.3,2.7,3.5,4.9,3.5c4.3,0,6.5-4.5,6.5-13.5
			S63.2,93.8,59,93.8c-2.2,0-3.8,1.1-4.9,3.4C52.9,99.6,52.4,102.9,52.4,107.3z"/>
		<path fill="#FFFFFF" d="M85.6,111.7v15h-7.2V88.1h9.4c4,0,6.9,0.9,8.8,2.8c1.9,1.9,2.8,4.8,2.8,8.6c0,4.9-1.6,8.3-4.9,10.2
			l7.4,16.9h-7.7l-6.1-15H85.6z M85.6,105.5h1.8c1.7,0,2.9-0.5,3.6-1.4c0.7-1,1.1-2.4,1.1-4.3c0-2-0.4-3.4-1.2-4.2
			c-0.8-0.8-2-1.3-3.6-1.3h-1.8V105.5z"/>
		<path fill="#FFFFFF" d="M129.4,126.7h-7.7l-6.3-16.5l-2.9,2.9v13.6h-7.2V88.1h7.2v19.1l2.5-5.8l6.6-13.4h7.7l-8.9,16.7
			L129.4,126.7z"/>
		<path fill="#FFFFFF" d="M150.4,116.1c0,3.6-0.9,6.4-2.7,8.3c-1.8,1.9-4.4,2.9-7.9,2.9c-3.4,0-6.2-0.7-8.6-2v-7.1
			c2.9,1.9,5.5,2.8,7.9,2.8c1.4,0,2.4-0.4,3.1-1.1c0.7-0.8,1-1.8,1-3.1c0-1.3-0.4-2.5-1.2-3.5c-0.8-1.1-2.2-2.2-4.1-3.5
			c-1.7-1.1-2.9-2.2-3.8-3.3c-0.9-1-1.5-2.2-2-3.5c-0.5-1.3-0.7-2.8-0.7-4.5c0-3.3,0.9-5.9,2.8-7.9c1.8-1.9,4.3-2.9,7.4-2.9
			c3,0,5.8,0.8,8.5,2.5l-2.4,5.8c-0.8-0.5-1.7-0.9-2.7-1.3c-0.9-0.4-1.9-0.6-3-0.6c-1.2,0-2.1,0.4-2.7,1.1c-0.6,0.8-0.9,1.8-0.9,3.1
			c0,1.3,0.4,2.4,1.1,3.4c0.7,1,2.1,2.1,3.9,3.3c2.5,1.7,4.3,3.4,5.3,5.2S150.4,113.8,150.4,116.1z"/>
	</g>
</g>
</svg>
